<svg width="38" height="34" viewBox="0 0 38 34" fill="none" xmlns="http://www.w3.org/2000/svg">
<path d="M13.7464 14.684L13.7403 14.689L10.9668 17L13.7353 19.3068C14.0747 19.5865 14.3582 19.9276 14.5711 20.3121L20.2102 4.80459C20.2103 4.80439 20.2104 4.8042 20.2105 4.804C20.3674 4.37213 20.6079 3.9754 20.9182 3.63644C21.2286 3.29734 21.6028 3.02271 22.0193 2.82823C22.4359 2.63376 22.8867 2.52327 23.346 2.50305C23.8051 2.48284 24.2636 2.55323 24.6955 2.71019L13.7464 14.684ZM13.7464 14.684L13.7523 14.6789C14.4571 14.0823 14.8975 13.2313 14.9776 12.3113C15.0578 11.3914 14.7711 10.4771 14.1801 9.76759C13.5891 9.05808 12.7416 8.61087 11.8224 8.5234C10.9031 8.43593 9.98654 8.71528 9.27233 9.30059L9.26598 9.30579L9.25968 9.31104L3.25995 14.3108C3.25986 14.3109 3.25977 14.311 3.25968 14.311C2.8655 14.6395 2.54835 15.0506 2.33069 15.5152C2.11298 15.9799 2.00012 16.4868 2.00012 17C2.00012 17.5132 2.11298 18.0201 2.33069 18.4848C2.54835 18.9494 2.8655 19.3605 3.25968 19.6889C3.25977 19.689 3.25986 19.6891 3.25995 19.6892L9.25479 24.6849C9.60577 24.9804 10.0115 25.2041 10.4488 25.3431C10.8891 25.4831 11.3527 25.5345 11.8129 25.4945C12.1403 25.4659 12.4614 25.3915 12.7669 25.2739L12.2105 26.804L12.2099 26.8054C11.8935 27.6776 11.9364 28.6398 12.3291 29.4804C12.721 30.3194 13.4295 30.9689 14.2993 31.2866M13.7464 14.684L14.2993 31.2866M14.2993 31.2866C14.6842 31.4281 15.0911 31.5004 15.5012 31.5M14.2993 31.2866L26.7896 7.19602L26.2332 8.72605C26.5387 8.60845 26.8598 8.53403 27.1871 8.50551C27.6474 8.46543 28.111 8.51685 28.5513 8.65683C28.9885 8.79584 29.3941 9.01945 29.745 9.3149L35.7401 14.3108C35.7402 14.3109 35.7403 14.311 35.7404 14.311C36.1346 14.6395 36.4517 15.0506 36.6694 15.5152C36.8871 15.9799 37 16.4868 37 17C37 17.5132 36.8871 18.0201 36.6694 18.4848C36.4517 18.9494 36.1346 19.3605 35.7404 19.6889C35.7403 19.689 35.7402 19.6891 35.7401 19.6892L29.7452 24.6849C29.3943 24.9805 28.9886 25.2041 28.5513 25.3431C28.111 25.4831 27.6474 25.5345 27.1871 25.4945C26.7269 25.4544 26.2792 25.3236 25.8697 25.1096C25.4603 24.8956 25.0973 24.6027 24.8016 24.2477C24.5059 23.8928 24.2834 23.4828 24.147 23.0414C24.0105 22.6 23.9628 22.136 24.0066 21.6761C24.0503 21.2162 24.1847 20.7695 24.402 20.3618C24.6177 19.957 24.9109 19.5985 25.2648 19.3068L28.0332 17L25.2648 14.6932C24.9254 14.4135 24.6419 14.0724 24.4289 13.6879L18.7897 29.1958C18.7897 29.1959 18.7897 29.1959 18.7896 29.196C18.5441 29.8713 18.0967 30.4546 17.5081 30.8668C16.9199 31.2788 16.2193 31.4998 15.5012 31.5M15.5012 31.5C15.5007 31.5 15.5002 31.5 15.4997 31.5L15.5 29.5L15.5027 31.5C15.5022 31.5 15.5017 31.5 15.5012 31.5ZM26.997 5.84593C27.0172 6.3052 26.9467 6.76395 26.7896 7.19597L26.997 5.84593ZM26.997 5.84593C26.9768 5.38664 26.8663 4.93585 26.6718 4.51929M26.997 5.84593L26.6718 4.51929M26.6718 4.51929C26.4773 4.10272 26.2027 3.72855 25.8636 3.41813M26.6718 4.51929L25.8636 3.41813M25.8636 3.41813C25.5247 3.10788 25.1279 2.8674 24.6961 2.71042L25.8636 3.41813Z" fill="#82BC4F" stroke="#16181D" stroke-width="4"/>
</svg>
