<svg width="25" height="24" viewBox="0 0 25 24" fill="none" xmlns="http://www.w3.org/2000/svg">
<path d="M4.57483 3L6.01741 19.1952L12.4904 21L18.9815 19.1886L20.4252 3H4.57483ZM17.4283 6.71038L16.9481 12.1055L16.9496 12.1346L16.9476 12.2016V12.2011L16.6064 15.9734L16.5688 16.3086L12.5 17.4339L12.4969 17.4368L8.43514 16.3051L8.16011 13.1863H10.1519L10.2932 14.7722L12.5006 15.3704L12.5 15.3716V15.3713L14.7156 14.7646L14.9498 12.182H10.3182L10.2784 11.7454L10.1879 10.7226L10.1404 10.1734H15.1258L15.3071 8.16487H7.71392L7.67418 7.72858L7.5838 6.70551L7.53616 6.15631H17.4758L17.4283 6.71038Z" fill="#3996DB"/>
</svg>
