<svg width="25" height="24" viewBox="0 0 25 24" fill="none" xmlns="http://www.w3.org/2000/svg">
<path fill-rule="evenodd" clip-rule="evenodd" d="M12.4999 2.49084C7.11589 2.49084 2.75 6.85577 2.75 12.2408C2.75 16.5487 5.54365 20.2032 9.41759 21.4926C9.9047 21.583 10.0836 21.2811 10.0836 21.0236C10.0836 20.7911 10.0745 20.023 10.0704 19.2083C7.35791 19.7981 6.78556 18.058 6.78556 18.058C6.34204 16.931 5.703 16.6314 5.703 16.6314C4.81823 16.0262 5.76969 16.0388 5.76969 16.0388C6.74858 16.1074 7.26427 17.0436 7.26427 17.0436C8.13387 18.5338 9.54514 18.103 10.1015 17.8541C10.189 17.2239 10.4417 16.7936 10.7205 16.5501C8.55494 16.3039 6.27827 15.4678 6.27827 11.7319C6.27827 10.6674 6.6593 9.79763 7.283 9.11468C7.18161 8.86927 6.84788 7.87762 7.37729 6.53464C7.37729 6.53464 8.19586 6.2726 10.059 7.53404C10.8369 7.31785 11.6712 7.20919 12.4999 7.20548C13.3282 7.20919 14.1629 7.31753 14.9422 7.53372C16.8032 6.27227 17.6208 6.53431 17.6208 6.53431C18.1515 7.87713 17.8177 8.86895 17.7165 9.11436C18.3417 9.79731 18.72 10.6671 18.72 11.7315C18.72 15.4763 16.4391 16.3007 14.268 16.5422C14.6179 16.8448 14.9295 17.4383 14.9295 18.3478C14.9295 19.6523 14.9182 20.7023 14.9182 21.0234C14.9182 21.2829 15.0938 21.5869 15.5879 21.4911C19.4596 20.2005 22.25 16.5471 22.25 12.2408C22.2498 6.85609 17.8844 2.49084 12.4999 2.49084Z" fill="#C0C4CE"/>
<path d="M6.44279 16.4894C6.42132 16.5379 6.34511 16.5524 6.27568 16.5193C6.20464 16.4877 6.16509 16.4216 6.18801 16.373C6.209 16.323 6.28537 16.3093 6.35593 16.3427C6.42697 16.3745 6.46749 16.441 6.44279 16.4894ZM6.83771 16.9301C6.79137 16.9732 6.70047 16.9531 6.6388 16.8848C6.57486 16.817 6.56291 16.7261 6.61022 16.6824C6.65833 16.6394 6.74649 16.6598 6.81042 16.7276C6.87403 16.7964 6.88647 16.8863 6.83771 16.9301ZM7.22229 17.4914C7.16255 17.5331 7.06471 17.4942 7.00433 17.4075C6.94459 17.3206 6.94459 17.2165 7.00594 17.175C7.06617 17.1333 7.16255 17.1709 7.22391 17.2568C7.28332 17.3448 7.28332 17.4491 7.22229 17.4914ZM7.7488 18.0341C7.69552 18.093 7.58153 18.0772 7.49822 17.9969C7.41313 17.9183 7.3894 17.8064 7.44284 17.7477C7.49709 17.6886 7.61156 17.705 7.69535 17.7848C7.78044 17.8633 7.80579 17.9755 7.7488 18.0341ZM8.47534 18.3491C8.45161 18.4254 8.34214 18.4602 8.23154 18.4275C8.12127 18.3941 8.0491 18.3048 8.07171 18.2277C8.09431 18.1506 8.20458 18.1146 8.31582 18.1494C8.4261 18.1826 8.49827 18.2714 8.47534 18.3491ZM9.27341 18.4074C9.27616 18.4878 9.18251 18.5543 9.06675 18.5559C8.95002 18.5586 8.85557 18.4934 8.85444 18.4143C8.85444 18.3331 8.94614 18.2674 9.06271 18.2651C9.17848 18.263 9.27341 18.3278 9.27341 18.4074ZM10.0158 18.2811C10.0297 18.3594 9.9491 18.44 9.83398 18.4614C9.72096 18.4824 9.61602 18.4337 9.60149 18.356C9.5876 18.2756 9.66962 18.195 9.78264 18.1742C9.89792 18.1544 10.0012 18.2015 10.0158 18.2811Z" fill="#C0C4CE"/>
</svg>
