<svg width="25" height="24" viewBox="0 0 25 24" fill="none" xmlns="http://www.w3.org/2000/svg">
<path d="M2.75024 16.31L5.01387 14.9625C5.45052 15.7244 5.84806 16.3688 6.80101 16.3688C7.71414 16.3688 8.29018 16.019 8.29018 14.6497V5.35113H11.0701V14.6882C11.0701 17.5204 9.38252 18.8099 6.92049 18.8099C6.05009 18.8563 5.18584 18.6422 4.44155 18.1958C3.69727 17.7494 3.10715 17.0924 2.75024 16.31ZM12.5806 16.0162L14.8442 14.7267C15.0959 15.229 15.4866 15.6513 15.9713 15.945C16.456 16.2387 17.0151 16.3919 17.5843 16.387C18.7364 16.387 19.4703 15.8203 19.4703 15.0387C19.4703 14.1012 18.7158 13.7688 17.4449 13.2196L16.7523 12.9299C14.7468 12.0903 13.4162 11.0352 13.4162 8.80819C13.4162 6.75677 15.0049 5.19441 17.4869 5.19441C18.2911 5.13706 19.0947 5.31396 19.7973 5.70304C20.5 6.09212 21.0706 6.67615 21.4381 7.38227L19.2733 8.75012C19.1313 8.3996 18.8843 8.09983 18.5651 7.89054C18.246 7.68125 17.8697 7.57232 17.4862 7.57817C17.319 7.56153 17.1501 7.57937 16.9903 7.63054C16.8305 7.68172 16.6833 7.7651 16.5581 7.87538C16.4329 7.98565 16.3325 8.12039 16.2632 8.27101C16.1939 8.42162 16.1572 8.5848 16.1556 8.75012C16.1556 9.57083 16.6719 9.90247 17.8624 10.4104L18.5572 10.7036C20.9204 11.6999 22.2502 12.7158 22.2502 15.0009C22.2502 17.4624 20.2846 18.8106 17.6441 18.8106C15.0625 18.8106 13.3949 17.5988 12.5806 16.0162Z" fill="#EABD5F"/>
</svg>
