<svg width="25" height="24" viewBox="0 0 25 24" fill="none" xmlns="http://www.w3.org/2000/svg">
<path d="M13.0611 18.9433C12.8877 18.7901 12.7069 18.6363 12.5341 18.4659C12.396 18.5936 12.2666 18.7132 12.1297 18.8322C10.4201 20.306 8.65785 20.9196 7.61324 20.3231C6.60271 19.7523 6.28436 18.066 6.6888 15.9445C6.73194 15.7145 6.78375 15.4846 6.84422 15.2546C6.6628 15.2012 6.49005 15.1521 6.31729 15.0944C4.16624 14.3602 2.75012 13.1678 2.75012 11.9749C2.75012 10.8253 4.07149 9.70926 6.13529 8.99373C6.3664 8.91684 6.61022 8.84048 6.86098 8.77213C6.8032 8.55053 6.75756 8.33747 6.71422 8.13136C6.28205 5.97783 6.58422 4.25736 7.60341 3.678C8.66536 3.06446 10.4276 3.72072 12.1973 5.26231C12.3007 5.35575 12.4047 5.45827 12.5168 5.56026C12.6809 5.40701 12.8363 5.25376 13.0004 5.1176C14.6759 3.67586 16.3422 3.073 17.3614 3.65237C18.4234 4.24829 18.7348 6.08837 18.2599 8.3631C18.2339 8.50835 18.2021 8.64451 18.1651 8.79029C18.3812 8.85009 18.5967 8.91791 18.7955 8.98626C20.9026 9.70178 22.2673 10.8178 22.25 11.9931C22.25 13.194 20.7905 14.3783 18.5522 15.111C18.4315 15.1451 18.3107 15.1879 18.1894 15.2215C18.2414 15.3918 18.2755 15.5622 18.3101 15.7325C18.7591 17.9389 18.4135 19.7448 17.3689 20.3413C17.0946 20.4939 16.7791 20.5717 16.4589 20.5655C15.5016 20.5639 14.2859 19.9814 13.0611 18.9433ZM14.7539 15.8169C14.2579 16.5301 13.7127 17.213 13.1217 17.8615C13.2858 18.0217 13.4499 18.1685 13.614 18.3047C15.0388 19.5141 16.3515 19.9659 16.9651 19.6167C17.1525 19.4675 17.3056 19.2851 17.4153 19.0803C17.5251 18.8755 17.5893 18.6524 17.6041 18.4243C17.7288 17.5789 17.6936 16.72 17.5001 15.8858C17.4741 15.7325 17.4423 15.5793 17.3967 15.4175C16.5265 15.6057 15.6436 15.7391 14.7539 15.8169ZM7.51675 16.0897C7.16315 17.9053 7.42199 19.2584 8.03674 19.6081C8.25454 19.6922 8.48969 19.7311 8.72553 19.7218C8.96137 19.7126 9.19212 19.6555 9.40144 19.5547C10.2158 19.2384 10.9574 18.7815 11.5866 18.2086C11.716 18.106 11.8368 17.987 11.9668 17.8679C11.3628 17.2192 10.8032 16.5363 10.2912 15.8233C9.40493 15.7549 8.52481 15.63 7.65715 15.4495C7.60341 15.6722 7.56008 15.8847 7.51675 16.0897ZM12.5434 17.2821C12.9235 16.8645 13.3031 16.4048 13.6833 15.8938C13.3031 15.9109 12.9062 15.9194 12.5087 15.9194C12.1112 15.9194 11.7403 15.9109 11.3688 15.8938C11.757 16.3957 12.1464 16.8645 12.5434 17.2821ZM10.7292 8.9681C10.401 9.4364 10.0815 9.92926 9.77931 10.4504C9.47713 10.9614 9.20153 11.481 8.9502 11.9989C9.20962 12.51 9.4858 13.0295 9.78797 13.5582C10.0901 14.0692 10.4097 14.5727 10.7378 15.0485C11.3075 15.0827 11.9038 15.1019 12.5081 15.1019C13.1125 15.1019 13.7168 15.0848 14.2958 15.0426C14.6066 14.5743 14.9261 14.0713 15.2289 13.5518C15.5316 13.0322 15.8159 12.5041 16.0666 11.9931C15.8159 11.4906 15.531 10.971 15.2289 10.451C14.9267 9.93086 14.6072 9.4364 14.2877 8.96863C13.7099 8.92592 13.1131 8.90029 12.5087 8.90029C11.9044 8.90029 11.3081 8.92538 10.7292 8.9681ZM7.87959 14.6667C8.47212 14.7918 9.07185 14.8857 9.67589 14.9481C9.46847 14.6245 9.26162 14.3004 9.06287 13.9597C8.87278 13.6276 8.68269 13.2954 8.50994 12.9633C8.25977 13.5421 8.05234 14.114 7.87959 14.6667ZM15.954 13.9512C15.7552 14.2918 15.5565 14.6154 15.3583 14.931C15.9714 14.86 16.5797 14.7577 17.1806 14.6245C16.993 14.0495 16.7739 13.4836 16.5242 12.9291C16.3428 13.2698 16.1527 13.6105 15.954 13.9512ZM6.4028 9.77707C4.64117 10.3906 3.57923 11.284 3.57923 11.9835C3.61281 12.2085 3.69415 12.4252 3.81859 12.6211C3.94302 12.817 4.10809 12.9883 4.30433 13.1251C4.97835 13.6489 5.75128 14.0532 6.58422 14.3175C6.73964 14.3709 6.90373 14.4115 7.06782 14.4627C7.33309 13.6248 7.65319 12.8026 8.02634 12.0006C7.65247 11.2123 7.33517 10.4021 7.07649 9.57523C6.84345 9.6329 6.61889 9.70018 6.4028 9.77707ZM16.9992 11.9835C17.3824 12.7753 17.7104 13.589 17.9814 14.4195C18.094 14.3853 18.2061 14.3511 18.3095 14.3169C20.2353 13.6868 21.4295 12.7241 21.4359 11.9744C21.4359 11.2759 20.3306 10.3725 18.5256 9.75945C18.3442 9.70018 18.146 9.64038 17.9479 9.58057C17.6862 10.3991 17.3694 11.2016 16.9992 11.9835ZM15.9459 10.0243C16.1446 10.365 16.3347 10.6976 16.5069 11.0298C16.7468 10.487 16.9544 9.9324 17.1286 9.36858C16.542 9.23686 15.9481 9.13454 15.3496 9.06208C15.557 9.37659 15.7558 9.69217 15.9459 10.0243ZM7.88826 9.36164C8.06159 9.90683 8.26843 10.4606 8.50994 11.0308C8.68327 10.6987 8.87278 10.3666 9.06287 10.0345C9.25296 9.70232 9.45113 9.37873 9.65855 9.06315C9.03687 9.13844 8.44985 9.24043 7.88826 9.36164ZM13.5447 5.74128C13.3979 5.8689 13.2511 6.00507 13.1038 6.14176C13.7035 6.78226 14.2547 7.46024 14.7534 8.17087C15.6322 8.24928 16.5038 8.38597 17.3614 8.5799C17.3961 8.45228 17.4192 8.32412 17.4481 8.1965C17.8525 6.23735 17.6035 4.73794 16.9472 4.36362C16.8031 4.28889 16.6397 4.25196 16.4745 4.25683C15.7691 4.25362 14.6863 4.76144 13.5447 5.73968V5.74128ZM8.01768 4.38498C7.40466 4.7342 7.16257 6.13108 7.52542 7.97117C7.56875 8.16714 7.61208 8.36257 7.6635 8.56708C8.52229 8.38029 9.39357 8.2465 10.2716 8.1666C10.7721 7.45508 11.3262 6.77703 11.9298 6.13749C11.835 6.04351 11.731 5.95861 11.6363 5.87317C10.4345 4.82284 9.27896 4.26858 8.52438 4.26858C8.34705 4.26299 8.17154 4.3033 8.01768 4.38498ZM13.6654 8.09879C13.3093 7.62254 12.925 7.16477 12.5145 6.72754C12.1262 7.14457 11.7374 7.60486 11.3589 8.09879C11.7391 8.0817 12.1187 8.07316 12.5076 8.07316C12.8964 8.07316 13.2852 8.0801 13.6654 8.09879ZM10.7812 12.0176C10.7731 11.7987 10.8118 11.5804 10.8951 11.3754C10.9785 11.1703 11.1048 10.9824 11.2668 10.8226C11.4289 10.6627 11.6235 10.5339 11.8394 10.4437C12.0554 10.3534 12.2885 10.3035 12.5255 10.2966C13.0035 10.3117 13.4555 10.5013 13.7825 10.8239C14.1095 11.1465 14.2847 11.5758 14.2698 12.0176C14.2852 12.4598 14.1101 12.8896 13.7829 13.2126C13.4558 13.5356 13.0033 13.7253 12.5249 13.7402C12.2878 13.7334 12.0546 13.6834 11.8385 13.593C11.6225 13.5027 11.4278 13.3738 11.2658 13.2137C11.1038 13.0537 10.9776 12.8656 10.8944 12.6604C10.8112 12.4551 10.7728 12.2367 10.7812 12.0176Z" fill="#3996DB"/>
</svg>
